# xmcd CD database file
#
# Track frame offsets:
#	150
#	13313
#	25739
#	36194
#	48624
#	60911
#	74492
#	87286
#	99080
#	110596
#	129776
#	141801
#
# Disc length: 2032 seconds
#
# Revision: 0
# Processed by: cddbd v1.5.1PL0 Copyright (c) Steve Scherf et al.
# Submitted via: CDex 1.51
#
DISCID=9a07ee0c
DTITLE=Carla Thomas - Memphis Queen
DYEAR=1900
DGENRE=Blues
TTITLE0=I Like What You#re doing
TTITLE1=I Play For Keeps
TTITLE2=Don't Say No More
TTITLE3=More Than I Ever Had
TTITLE4=I've Fallen In Love
TTITLE5=He's beating Your Time
TTITLE6=Unyielding
TTITLE7=Strung Out
TTITLE8=How Can You Throw My Love Away
TTITLE9=Guide Me Well
TTITLE10=Precious Memories
TTITLE11=Where Do I Go
EXTD=
EXTT0=
EXTT1=
EXTT2=
EXTT3=
EXTT4=
EXTT5=
EXTT6=
EXTT7=
EXTT8=
EXTT9=
EXTT10=
EXTT11=
PLAYORDER=
